<svg xmlns="http://www.w3.org/2000/svg" width="173" height="40" viewBox="0 0 173 40">
    <g fill="#FFF" fill-rule="evenodd">
        <path d="M141.257.005s3.535 15.103 13.827 27.173c0 0-11.946-.374-16.13-8.37-3.844-7.348-1.14-14.864 2.303-18.803M158.978 31.26c3.904 3.64 8.572 6.727 14.12 8.624 0 0-7.438.606-11.925-1.515-4.488-2.121-9.16-5.697-12.048-5.94-2.89-.242-4.578-.4-5.348-1.168h15.201"/>
        <path d="M165.63 31.596c-1.814-4.273-10.546-4.418-10.546-4.418s2.366 2.601 3.894 4.083c0 0 5.33-.15 6.651.335M21.72 12.611h5.327l4.835 12.525 4.672-12.525h5.491l-8.39 19.556h-1.773c-.84 0-2.049-.081-3.278-3.313-1.23-3.233-6.885-16.243-6.885-16.243M43.684 32.167h5.246V12.61h-5.246zM49.34 7.116c0 1.652-1.358 2.99-3.033 2.99-1.675 0-3.033-1.338-3.033-2.99 0-1.651 1.358-2.99 3.033-2.99 1.675 0 3.033 1.339 3.033 2.99M90.565 32.167h-5.41V18.833s0-2.828-3.032-2.181c-2.467.525-4.262 2.02-4.262 2.02v13.495h-5.409V12.61s4.754-1.454 5.163 1.859c0 0 3.033-2.505 6.803-2.505s6.147 2.667 6.147 5.414v14.788M63.682 27.197s-1.393 1.01-3.606 1.01-2.868-1.414-2.868-2.505c0-1.253.737-2.748 6.474-2.424v3.92zm5.164 1.596V18.672c0-2.263-.943-6.829-7.377-6.788-6.147.038-8.441 2.586-8.441 2.586l2.049 3.232s.983-1.616 4.917-1.616c3.934 0 3.442 3.394 3.442 3.394-10.818-.162-11.392 4.283-11.392 6.95 0 2.666 2.05 5.898 6.065 5.898 4.016 0 6.065-1.939 6.065-1.939.164 1.697 2.131 1.778 2.131 1.778h3.114c-.491 0-.573-3.374-.573-3.374zM123.059 27.197s-1.393 1.01-3.606 1.01-2.869-1.414-2.869-2.505c0-1.253.737-2.748 6.475-2.424v3.92zm5.163 1.596V18.672c0-2.263-.942-6.829-7.376-6.788-6.147.038-8.442 2.586-8.442 2.586l2.05 3.232s.983-1.616 4.917-1.616c3.934 0 3.442 3.394 3.442 3.394-10.819-.162-11.393 4.283-11.393 6.95 0 2.666 2.05 5.898 6.066 5.898s6.065-1.939 6.065-1.939c.163 1.697 2.13 1.778 2.13 1.778h3.115c-.492 0-.574-3.374-.574-3.374zM109.006 17.864s-1.763-1.778-5.246-1.778c-3.852 0-5.327 3.717-5.327 6.869 0 3.151 2.377 5.333 5.82 5.333 2.58 0 4.589-1.535 4.589-1.535l1.393 3.798s-2.91 2.02-7.54 2.02c-3.196 0-9.426-2.1-9.426-9.697 0-7.596 5.082-10.874 10-10.828 4.384.04 6.105 1.535 6.105 1.535l-.368 4.283M9.555 20.952l2.97-8.175 2.97 8.175h-5.94zm4.977-15.937h-4.016L.026 32.167h5.491l2.213-6.869h9.507l2.787 6.869h5.491L14.532 5.015z"/>
    </g>
</svg>
